SplineFontDB: 3.2
FontName: Untitled1
FullName: Untitled1
FamilyName: Untitled1
Weight: Regular
Copyright: Copyright (c) 2023, ogu-h
UComments: "2023-8-27: Created with FontForge (http://fontforge.org)"
Version: 001.000
ItalicAngle: 0
UnderlinePosition: -100
UnderlineWidth: 50
Ascent: 800
Descent: 200
InvalidEm: 0
LayerCount: 2
Layer: 0 0 "+gMyXYgAA" 1
Layer: 1 0 "+Uk2XYgAA" 0
XUID: [1021 9 -1810624738 3068]
FSType: 0
OS2Version: 0
OS2_WeightWidthSlopeOnly: 0
OS2_UseTypoMetrics: 1
CreationTime: 1693078579
ModificationTime: 1693209922
PfmFamily: 17
TTFWeight: 400
TTFWidth: 5
LineGap: 90
VLineGap: 0
OS2TypoAscent: 0
OS2TypoAOffset: 1
OS2TypoDescent: 0
OS2TypoDOffset: 1
OS2TypoLinegap: 90
OS2WinAscent: 0
OS2WinAOffset: 1
OS2WinDescent: 0
OS2WinDOffset: 1
HheadAscent: 0
HheadAOffset: 1
HheadDescent: 0
HheadDOffset: 1
OS2Vendor: 'PfEd'
MarkAttachClasses: 1
DEI: 91125
LangName: 1033
Encoding: ISO8859-1
UnicodeInterp: none
NameList: AGL For New Fonts
DisplaySize: -48
AntiAlias: 1
FitToEm: 0
WinInfo: 48 16 4
BeginPrivate: 0
EndPrivate
TeXData: 1 0 0 346030 173015 115343 0 1048576 115343 783286 444596 497025 792723 393216 433062 380633 303038 157286 324010 404750 52429 2506097 1059062 262144
BeginChars: 256 26

StartChar: B
Encoding: 66 66 0
Width: 1000
Flags: H
LayerCount: 2
Fore
SplineSet
567.897460938 20 m 2
 573.416992188 20 577.897460938 24.48046875 577.897460938 30 c 0
 577.897460938 33.3896484375 576.216796875 36.3828125 573.6328125 38.19140625 c 0
 573.624023438 38.197265625 370.602539062 180.35546875 370.602539062 180.35546875 c 2
 363.821289062 185.103515625 354.459960938 183.453125 349.711914062 176.671875 c 0
 347.879882812 174.055664062 346.999023438 171.0390625 346.999023438 168.068359375 c 1
 347 168.083984375 346.999023438 40 346.999023438 40 c 2
 346.999023438 28.9619140625 355.9609375 20 366.999023438 20 c 2
 567.897460938 20 l 2
445.392578125 303.329101562 m 2
 454.434570312 309.66015625 456.635742188 322.141601562 450.303710938 331.18359375 c 0
 448.927734375 333.149414062 447.251953125 334.793945312 445.392578125 336.095703125 c 1
 445.40234375 336.092773438 370.602539062 388.463867188 370.602539062 388.463867188 c 2
 363.821289062 393.212890625 354.459960938 391.561523438 349.711914062 384.780273438 c 0
 347.879882812 382.1640625 346.999023438 379.147460938 346.999023438 376.176757812 c 1
 347 376.193359375 346.999023438 263.248046875 346.999023438 263.248046875 c 2
 346.999023438 254.96875 353.719726562 248.248046875 361.999023438 248.248046875 c 0
 365.192382812 248.248046875 368.168945312 249.256835938 370.602539062 250.9609375 c 1
 370.587890625 250.952148438 445.392578125 303.329101562 445.392578125 303.329101562 c 2
491.959960938 311.520507812 m 2
 360.903320312 219.75390625 l 2
 358.642578125 218.170898438 358.092773438 215.05078125 359.67578125 212.790039062 c 0
 360.01953125 212.298828125 360.438476562 211.887695312 360.903320312 211.5625 c 1
 360.900390625 211.5625 637.065429688 18.19140625 637.065429688 18.19140625 c 2
 641.5859375 15.025390625 642.686523438 8.78515625 639.520507812 4.2646484375 c 0
 637.576171875 1.4873046875 634.483398438 0 631.329101562 -0 c 0
 631.318359375 0.0009765625 336.999023438 -0 336.999023438 -0 c 2
 331.479492188 -0 326.999023438 4.48046875 326.999023438 10 c 0
 326.999023438 418.99609375 l 1
 44.2646484375 616.96875 l 2
 39.7431640625 620.133789062 38.642578125 626.375 41.80859375 630.895507812 c 0
 44.974609375 635.416992188 51.21484375 636.517578125 55.7353515625 633.3515625 c 1
 491.959960938 327.904296875 l 2
 496.481445312 324.73828125 497.58203125 318.497070312 494.416015625 313.9765625 c 0
 493.727539062 312.994140625 492.889648438 312.171875 491.959960938 311.520507812 c 2
EndSplineSet
EndChar

StartChar: C
Encoding: 67 67 1
Width: 1000
Flags: H
LayerCount: 2
Fore
SplineSet
50.0576171875 635.1796875 m 1025
44.2646484375 616.970703125 m 2
 39.7431640625 620.135742188 38.642578125 626.376953125 41.80859375 630.897460938 c 0
 44.974609375 635.418945312 51.21484375 636.51953125 55.7353515625 633.353515625 c 0
 662.396484375 208.565429688 l 2
 666.916992188 205.399414062 668.017578125 199.159179688 664.8515625 194.637695312 c 0
 661.686523438 190.1171875 655.4453125 189.016601562 650.924804688 192.182617188 c 1
 515.137695312 287.26171875 l 2
 500.984375 297.171875 482.637695312 296.633789062 469.251953125 287.26171875 c 0
 469.232421875 287.256835938 311.927734375 177.102539062 311.927734375 177.102539062 c 2
 304.016601562 171.5625 302.090820312 160.641601562 307.630859375 152.729492188 c 0
 308.834960938 151.009765625 310.301757812 149.5703125 311.927734375 148.431640625 c 1
 311.919921875 148.43359375 469.251953125 38.2724609375 469.251953125 38.2724609375 c 2
 483.405273438 28.3623046875 501.751953125 28.8994140625 515.137695312 38.2724609375 c 0
 515.157226562 38.27734375 650.924804688 133.3515625 650.924804688 133.3515625 c 2
 655.4453125 136.517578125 661.686523438 135.416992188 664.8515625 130.895507812 c 0
 668.017578125 126.375 666.916992188 120.133789062 662.396484375 116.96875 c 0
 497.930664062 1.80859375 l 2
 494.392578125 -0.6689453125 489.805664062 -0.53515625 486.458984375 1.80859375 c 0
 486.454101562 1.8095703125 268.28515625 154.575195312 268.28515625 154.575195312 c 2
 263.763671875 157.741210938 262.6640625 163.981445312 265.829101562 168.502929688 c 0
 266.517578125 169.485351562 267.35546875 170.307617188 268.28515625 170.958984375 c 1
 268.280273438 170.95703125 474.760742188 315.534179688 474.760742188 315.534179688 c 1
 44.2646484375 616.970703125 l 2
EndSplineSet
EndChar

StartChar: D
Encoding: 68 68 2
Width: 1000
Flags: H
LayerCount: 2
Fore
SplineSet
354.677734375 58.0244140625 m 2
 354.677734375 49.74609375 361.399414062 43.0244140625 369.677734375 43.0244140625 c 0
 372.87109375 43.0244140625 375.84765625 44.033203125 378.28125 45.7373046875 c 1
 378.266601562 45.728515625 601.625976562 202.125 601.625976562 202.125 c 2
 608.407226562 206.873046875 610.05859375 216.234375 605.309570312 223.015625 c 0
 604.27734375 224.490234375 603.020507812 225.723632812 601.625976562 226.69921875 c 1
 601.633789062 226.698242188 378.28125 383.086914062 378.28125 383.086914062 c 2
 371.5 387.8359375 362.138671875 386.185546875 357.390625 379.403320312 c 0
 355.55859375 376.787109375 354.677734375 373.770507812 354.677734375 370.799804688 c 1
 354.678710938 370.81640625 354.677734375 213.084960938 354.677734375 213.084960938 c 1
 354.677734375 58.0244140625 l 2
350.413085938 1.80859375 m 2
 348.791015625 0.6728515625 346.806640625 0 344.677734375 0 c 0
 339.158203125 0 334.677734375 4.48046875 334.677734375 10 c 2
 334.677734375 413.619140625 l 1
 44.2646484375 616.96875 l 0
 39.7431640625 620.133789062 38.642578125 626.375 41.80859375 630.895507812 c 0
 44.974609375 635.416992188 51.21484375 636.517578125 55.7353515625 633.3515625 c 2
 55.7353515625 633.3515625 642.349609375 222.602539062 642.344726562 222.603515625 c 1
 643.2734375 221.953125 644.112304688 221.130859375 644.799804688 220.1484375 c 0
 647.965820312 215.626953125 646.865234375 209.38671875 642.344726562 206.220703125 c 2
 350.413085938 1.80859375 l 2
EndSplineSet
EndChar

StartChar: E
Encoding: 69 69 3
Width: 1000
Flags: H
LayerCount: 2
Fore
SplineSet
331.3125 140.619140625 m 1025
514.153320312 287.94140625 m 2
 514.172851562 287.927734375 514.134765625 288.036132812 514.153320312 288.022460938 c 2
 514.153320312 287.94140625 l 2
660.78515625 209.693359375 m 1025
44.2646484375 616.970703125 m 2
 39.7434917333 620.136209858 38.642578125 626.376953125 41.80859375 630.897460938 c 0
 44.974609375 635.418945312 51.21484375 636.51953125 55.7353515625 633.353515625 c 1
 660.78515625 209.693359375 l 2
 665.305664062 206.528320312 666.40625 200.287109375 663.240234375 195.766601562 c 0
 660.075195312 191.245117188 653.833984375 190.14453125 649.313476562 193.310546875 c 1
 514.09765625 287.989257812 l 2
 499.944335938 297.899414062 481.59765625 297.362304688 468.211914062 287.989257812 c 0
 468.192382812 287.985351562 336.65234375 195.870117188 336.65234375 195.870117188 c 2
 331.000976562 191.913085938 329.625 184.112304688 333.58203125 178.4609375 c 0
 336.012695312 174.990234375 339.879882812 173.130859375 343.821289062 173.130859375 c 0
 343.834960938 173.131835938 567.79296875 173.130859375 567.79296875 173.130859375 c 6
 573.3125 173.130859375 577.79296875 168.650390625 577.79296875 163.130859375 c 0
 577.79296875 157.612304688 573.3125 153.130859375 567.79296875 153.130859375 c 1
 343.821289062 153.130859375 l 2
 336.922851562 153.130859375 331.321289062 147.530273438 331.321289062 140.630859375 c 0
 331.321289062 136.393554688 333.422851562 132.65234375 336.65234375 130.391601562 c 0
 336.6640625 130.384765625 468.211914062 38.2724609375 468.211914062 38.2724609375 c 2
 482.365234375 28.3623046875 500.711914062 28.8994140625 514.09765625 38.2724609375 c 0
 514.1171875 38.27734375 649.313476562 132.951171875 649.313476562 132.951171875 c 2
 653.833984375 136.1171875 660.075195312 135.016601562 663.240234375 130.49609375 c 0
 666.40625 125.974609375 665.305664062 119.734375 660.78515625 116.568359375 c 0
 496.890625 1.80859375 l 2
 493.352539062 -0.6689453125 488.765625 -0.53515625 485.418945312 1.80859375 c 0
 485.4140625 1.8095703125 266.724609375 154.939453125 266.724609375 154.939453125 c 2
 262.204101562 158.10546875 261.103515625 164.345703125 264.26953125 168.8671875 c 0
 264.95703125 169.849609375 265.795898438 170.671875 266.724609375 171.322265625 c 1
 266.719726562 171.321289062 473.723632812 316.283203125 473.723632812 316.283203125 c 1
 44.2646484375 616.970703125 l 2
EndSplineSet
EndChar

StartChar: F
Encoding: 70 70 4
Width: 1000
Flags: H
LayerCount: 2
Fore
SplineSet
332.432617188 9.986328125 m 1026
555.325195312 259.06640625 m 1024
520.364257812 224.811523438 m 2
 525.883789062 224.811523438 530.364257812 220.330078125 530.364257812 214.811523438 c 0
 530.364257812 209.291992188 525.883789062 204.811523438 520.364257812 204.811523438 c 2
 372.408203125 204.811523438 l 2
 361.370117188 204.811523438 352.408203125 195.849609375 352.408203125 184.811523438 c 1
 352.408203125 10 l 2
 352.408203125 4.48046875 347.927734375 -0 342.408203125 -0 c 0
 336.889648438 -0 332.408203125 4.48046875 332.408203125 10 c 2
 332.408203125 415.208007812 l 1
 44.2646484375 616.96875 l 2
 39.7431640625 620.133789062 38.642578125 626.375 41.80859375 630.895507812 c 0
 44.974609375 635.416992188 51.21484375 636.517578125 55.7353515625 633.3515625 c 1
 566.79296875 275.505859375 l 2
 571.313476562 272.33984375 572.4140625 266.099609375 569.248046875 261.578125 c 0
 566.083007812 257.057617188 559.841796875 255.95703125 555.321289062 259.123046875 c 1
 533.381835938 274.484375 l 1
 376.01171875 384.67578125 l 2
 369.23046875 389.424804688 359.869140625 387.774414062 355.12109375 380.9921875 c 0
 353.2890625 378.375976562 352.408203125 375.360351562 352.408203125 372.388671875 c 1
 352.41015625 372.405273438 352.408203125 244.811523438 352.408203125 244.811523438 c 2
 352.408203125 233.7734375 361.370117188 224.811523438 372.408203125 224.811523438 c 0
 520.364257812 224.811523438 l 2
EndSplineSet
EndChar

StartChar: A
Encoding: 65 65 5
Width: 1000
Flags: H
LayerCount: 2
Fore
SplineSet
724.586914062 140.603515625 m 2
 530.954101562 276.186523438 l 2
 523.041992188 281.7265625 512.12109375 279.80078125 506.581054688 271.889648438 c 0
 504.444335938 268.836914062 503.416015625 265.317382812 503.416015625 261.8515625 c 1
 503.41796875 261.87109375 503.416015625 147.412109375 503.416015625 147.412109375 c 2
 503.416015625 133.614257812 514.618164062 122.412109375 528.416015625 122.412109375 c 2
 718.8515625 122.412109375 l 2
 724.370117188 122.412109375 728.8515625 126.892578125 728.8515625 132.412109375 c 0
 728.8515625 135.801757812 727.169921875 138.794921875 724.586914062 140.603515625 c 2
528.416015625 102.412109375 m 2
 514.618164062 102.412109375 503.416015625 91.2099609375 503.416015625 77.412109375 c 2
 503.416015625 10 l 2
 503.416015625 4.48046875 498.935546875 -0 493.416015625 -0 c 0
 487.897460938 -0 483.416015625 4.48046875 483.416015625 10 c 1
 483.416015625 23.837890625 l 1
 483.416015625 309.47265625 l 1
 44.2646484375 616.970703125 l 2
 39.7431640625 620.135742188 38.642578125 626.376953125 41.80859375 630.897460938 c 0
 44.974609375 635.418945312 51.21484375 636.51953125 55.7353515625 633.353515625 c 0
 934.278320312 18.19140625 l 2
 938.798828125 15.025390625 939.899414062 8.78515625 936.734375 4.2646484375 c 0
 933.568359375 -0.2568359375 927.328125 -1.357421875 922.806640625 1.80859375 c 1
 779.129882812 102.412109375 l 1
 528.416015625 102.412109375 l 2
EndSplineSet
EndChar

StartChar: G
Encoding: 71 71 6
Width: 1000
Flags: H
LayerCount: 2
Fore
SplineSet
641.89453125 222.91796875 m 2
 646.416015625 219.752929688 647.516601562 213.51171875 644.350585938 208.991210938 c 0
 641.185546875 204.469726562 634.944335938 203.370117188 630.423828125 206.53515625 c 1
 513.215820312 288.60546875 l 2
 499.0625 298.515625 480.71484375 297.978515625 467.329101562 288.60546875 c 0
 467.310546875 288.600585938 311.970703125 179.822265625 311.970703125 179.822265625 c 2
 302.928710938 173.490234375 300.727539062 161.009765625 307.059570312 151.967773438 c 0
 308.435546875 150.001953125 310.112304688 148.357421875 311.970703125 147.055664062 c 1
 311.9609375 147.05859375 467.329101562 38.2724609375 467.329101562 38.2724609375 c 2
 481.482421875 28.3623046875 499.830078125 28.8994140625 513.215820312 38.2724609375 c 0
 513.234375 38.27734375 638.719726562 126.151367188 638.719726562 126.151367188 c 2
 645.500976562 130.900390625 647.15234375 140.260742188 642.403320312 147.04296875 c 0
 639.486328125 151.208007812 634.846679688 153.438476562 630.116210938 153.438476562 c 0
 630.099609375 153.4375 425.045898438 153.438476562 425.045898438 153.438476562 c 2
 419.52734375 153.438476562 415.045898438 157.919921875 415.045898438 163.438476562 c 0
 415.045898438 168.958007812 419.52734375 173.438476562 425.045898438 173.438476562 c 1
 709.40625 173.438476562 l 2
 714.924804688 173.438476562 719.40625 168.958007812 719.40625 163.438476562 c 0
 719.40625 160.048828125 717.724609375 157.056640625 715.141601562 155.247070312 c 0
 715.131835938 155.2421875 496.0078125 1.80859375 496.0078125 1.80859375 c 2
 492.469726562 -0.6689453125 487.8828125 -0.53515625 484.537109375 1.80859375 c 0
 484.532226562 1.8095703125 265.403320312 155.247070312 265.403320312 155.247070312 c 2
 260.881835938 158.413085938 259.78125 164.653320312 262.947265625 169.174804688 c 0
 263.635742188 170.157226562 264.473632812 170.979492188 265.403320312 171.630859375 c 1
 265.3984375 171.62890625 472.837890625 316.877929688 472.837890625 316.877929688 c 1
 44.2646484375 616.96875 l 2
 39.7431640625 620.133789062 38.642578125 626.375 41.80859375 630.895507812 c 0
 44.974609375 635.416992188 51.21484375 636.517578125 55.7353515625 633.3515625 c 1
 641.89453125 222.91796875 l 2
EndSplineSet
EndChar

StartChar: H
Encoding: 72 72 7
Width: 1000
Flags: H
LayerCount: 2
Fore
SplineSet
918.099609375 10 m 2
 918.099609375 154.258789062 l 1
 499.65234375 154.258789062 l 1
 499.65234375 10 l 1
 499.65234375 4.48046875 495.171875 -0 489.65234375 -0 c 0
 484.1328125 -0 479.65234375 4.48046875 479.65234375 10 c 2
 479.65234375 313.858398438 l 1
 44.2861328125 616.955078125 l 2
 44.2841796875 616.95703125 l 2
 39.7548828125 620.110351562 38.63671875 626.34765625 41.791015625 630.876953125 c 0
 44.9443359375 635.407226562 51.181640625 636.524414062 55.7109375 633.37109375 c 2
 55.7138671875 633.369140625 l 1
 499.65234375 324.3046875 l 1
 499.65234375 174.258789062 l 1
 918.099609375 174.258789062 l 1
 918.099609375 318.518554688 l 1
 918.099609375 324.037109375 922.580078125 328.518554688 928.099609375 328.518554688 c 0
 933.619140625 328.518554688 938.099609375 324.037109375 938.099609375 318.518554688 c 2
 938.099609375 10 l 1
 938.099609375 4.48046875 933.619140625 -0 928.099609375 -0 c 0
 922.580078125 -0 918.099609375 4.48046875 918.099609375 10 c 2
EndSplineSet
EndChar

StartChar: I
Encoding: 73 73 8
Width: 1000
Flags: H
LayerCount: 2
Fore
SplineSet
-0 0 m 1025
44.2353515625 616.911132812 m 1026
328.545898438 10 m 2
 328.545898438 402.294921875 l 2
 328.545898438 412.465820312 323.502929688 421.443359375 315.752929688 426.870117188 c 0
 315.724609375 426.88671875 44.2646484375 616.96875 44.2646484375 616.96875 c 2
 39.7431640625 620.133789062 38.642578125 626.375 41.80859375 630.895507812 c 0
 44.974609375 635.416992188 51.21484375 636.517578125 55.7353515625 633.3515625 c 1
 344.28125 431.309570312 l 2
 347.05859375 429.365234375 348.545898438 426.271484375 348.545898438 423.118164062 c 0
 348.544921875 423.107421875 348.545898438 10 348.545898438 10 c 2
 348.545898438 4.48046875 344.065429688 0 338.545898438 0 c 0
 333.026367188 0 328.545898438 4.48046875 328.545898438 10 c 2
EndSplineSet
EndChar

StartChar: J
Encoding: 74 74 9
Width: 1000
Flags: HW
LayerCount: 2
Fore
SplineSet
345.784179688 1.759765625 m 2
 342.25 -0.6708984375 337.703125 -0.5166015625 334.3828125 1.80859375 c 0
 334.377929688 1.8095703125 188.393554688 104.03125 188.393554688 104.03125 c 2
 183.873046875 107.196289062 182.772460938 113.4375 185.938476562 117.958007812 c 0
 189.103515625 122.479492188 195.344726562 123.580078125 199.865234375 120.4140625 c 1
 317.434570312 38.0908203125 l 2
 331.490234375 28.2490234375 349.6796875 28.7099609375 363.041015625 37.8974609375 c 0
 363.0625 37.9033203125 462.310546875 106.154296875 462.310546875 106.154296875 c 2
 470.765625 111.96875 475.3125 121.326171875 475.3125 130.875 c 0
 475.310546875 130.908203125 475.3125 299.530273438 475.3125 299.530273438 c 2
 475.3125 309.700195312 470.26953125 318.677734375 462.520507812 324.104492188 c 0
 462.491210938 324.12109375 44.2646484375 616.970703125 44.2646484375 616.970703125 c 2
 39.748046875 620.137695312 38.650390625 626.374023438 41.814453125 630.893554688 c 0
 44.978515625 635.412109375 51.21484375 636.513671875 55.7353515625 633.353515625 c 1
 491.048828125 328.543945312 l 2
 493.825195312 326.599609375 495.3125 323.505859375 495.3125 320.352539062 c 0
 495.311523438 320.341796875 495.3125 109.834960938 495.3125 109.834960938 c 2
 495.3125 106.415039062 493.6015625 103.3984375 490.978515625 101.594726562 c 0
 490.96875 101.58984375 345.784179688 1.759765625 345.784179688 1.759765625 c 2
EndSplineSet
EndChar

StartChar: K
Encoding: 75 75 10
Width: 1000
Flags: H
LayerCount: 2
Fore
SplineSet
382.563476562 198.157226562 m 1025
628.090820312 427.25 m 2
 632.611328125 430.416015625 638.852539062 429.315429688 642.017578125 424.793945312 c 0
 645.18359375 420.2734375 644.083007812 414.032226562 639.5625 410.8671875 c 2
 639.5625 410.8671875 382.55078125 230.91015625 382.560546875 230.912109375 c 1
 380.701171875 229.610351562 379.024414062 227.965820312 377.6484375 226.000976562 c 0
 371.317382812 216.958984375 373.517578125 204.477539062 382.560546875 198.146484375 c 2
 639.5625 18.19140625 l 0
 639.564453125 18.1904296875 639.56640625 18.1884765625 639.568359375 18.1875 c 0
 644.08984375 15.021484375 645.189453125 8.78125 642.024414062 4.259765625 c 0
 638.858398438 -0.2607421875 632.618164062 -1.361328125 628.096679688 1.8037109375 c 0
 628.094726562 1.8056640625 628.092773438 1.806640625 628.090820312 1.80859375 c 2
 628.090820312 1.80859375 375.252929688 178.845703125 375.266601562 178.837890625 c 1
 372.833007812 180.541992188 369.857421875 181.549804688 366.663085938 181.549804688 c 0
 358.384765625 181.549804688 351.663085938 174.829101562 351.663085938 166.549804688 c 2
 351.663085938 10 l 1
 351.663085938 4.48046875 347.182617188 -0 341.663085938 -0 c 0
 336.14453125 -0 331.663085938 4.48046875 331.663085938 10 c 2
 331.663085938 415.729492188 l 1
 44.2646484375 616.96875 l 0
 39.7431640625 620.133789062 38.642578125 626.375 41.80859375 630.895507812 c 0
 44.974609375 635.416992188 51.21484375 636.517578125 55.7353515625 633.3515625 c 2
 351.663085938 426.140625 l 1
 351.663085938 426.140625 351.6640625 257.692382812 351.663085938 257.706054688 c 1
 351.663085938 255.23046875 352.397460938 252.715820312 353.923828125 250.536132812 c 0
 357.880859375 244.884765625 365.681640625 243.509765625 371.333007812 247.466796875 c 2
 628.090820312 427.25 l 2
EndSplineSet
EndChar

StartChar: L
Encoding: 76 76 11
Width: 1000
Flags: H
LayerCount: 2
Fore
SplineSet
316.52734375 426.327148438 m 2
 44.2646484375 616.96875 l 0
 39.7431640625 620.133789062 38.642578125 626.375 41.80859375 630.895507812 c 0
 44.974609375 635.416992188 51.21484375 636.517578125 55.7353515625 633.3515625 c 2
 348.254882812 428.52734375 l 1
 348.254882812 45 l 2
 348.254882812 31.2021484375 359.456054688 20 373.254882812 20 c 2
 928.5390625 20 l 2
 934.05859375 20 938.5390625 15.51953125 938.5390625 10 c 0
 938.5390625 4.48046875 934.05859375 0 928.5390625 0 c 2
 338.254882812 0 l 2
 332.735351562 0 328.254882812 4.48046875 328.254882812 10 c 2
 328.254882812 10 328.251953125 403.770507812 328.254882812 403.80078125 c 0
 328.254882812 412.473632812 324.1640625 420.98046875 316.52734375 426.327148438 c 2
EndSplineSet
EndChar

StartChar: M
Encoding: 77 77 12
Width: 1000
Flags: H
LayerCount: 2
Fore
SplineSet
918.536132812 254.33984375 m 1026
918.5390625 10 m 2
 918.5390625 254.356445312 l 2
 918.5390625 266.774414062 908.458007812 276.856445312 896.0390625 276.856445312 c 0
 891.249023438 276.856445312 886.784179688 275.34375 883.133789062 272.787109375 c 1
 883.155273438 272.799804688 709.469726562 151.186523438 709.469726562 151.186523438 c 1
 535.805664062 272.787109375 l 2
 525.633789062 279.91015625 511.592773438 277.43359375 504.469726562 267.26171875 c 0
 501.721679688 263.337890625 500.400390625 258.8125 500.400390625 254.356445312 c 1
 500.40234375 254.380859375 500.400390625 10 500.400390625 10 c 2
 500.400390625 4.48046875 495.919921875 0 490.400390625 0 c 0
 484.881835938 0 480.400390625 4.48046875 480.400390625 10 c 1
 480.400390625 311.58203125 l 1
 44.2646484375 616.96875 l 2
 39.748046875 620.135742188 38.650390625 626.372070312 41.814453125 630.891601562 c 0
 44.978515625 635.41015625 51.21484375 636.51171875 55.7353515625 633.3515625 c 1
 709.469726562 175.6015625 l 1
 922.803710938 324.979492188 l 2
 927.325195312 328.145507812 933.565429688 327.044921875 936.731445312 322.5234375 c 0
 937.952148438 320.780273438 938.5390625 318.768554688 938.5390625 316.788085938 c 1
 938.5390625 316.798828125 938.5390625 10 938.5390625 10 c 2
 938.5390625 4.48046875 934.05859375 0 928.5390625 0 c 0
 923.020507812 0 918.5390625 4.48046875 918.5390625 10 c 2
EndSplineSet
EndChar

StartChar: N
Encoding: 78 78 13
Width: 1000
Flags: H
LayerCount: 2
Fore
SplineSet
0 -200 m 1025
938.5390625 10 m 2
 938.5390625 8.01953125 937.952148438 6.0087890625 936.731445312 4.2646484375 c 0
 933.565429688 -0.2568359375 927.325195312 -1.357421875 922.803710938 1.80859375 c 2
 922.803710938 1.80859375 546.971679688 264.965820312 547 264.94921875 c 1
 542.1328125 268.357421875 536.180664062 270.374023438 529.79296875 270.374023438 c 0
 513.235351562 270.374023438 499.79296875 256.931640625 499.79296875 240.374023438 c 2
 499.79296875 19.234375 l 1
 499.79296875 10 l 1
 499.79296875 4.48046875 495.311523438 0 489.79296875 0 c 0
 484.2734375 0 479.79296875 4.48046875 479.79296875 10 c 2
 479.79296875 312.0078125 l 1
 44.2646484375 616.96875 l 0
 39.7431640625 620.133789062 38.642578125 626.375 41.80859375 630.895507812 c 0
 44.974609375 635.416992188 51.21484375 636.517578125 55.7353515625 633.3515625 c 2
 55.7353515625 633.3515625 871.360351562 62.248046875 871.33203125 62.2646484375 c 1
 876.19921875 58.8564453125 882.15234375 56.8388671875 888.5390625 56.8388671875 c 0
 905.096679688 56.8388671875 918.5390625 70.2822265625 918.5390625 86.8388671875 c 2
 918.5390625 317.213867188 l 1
 918.5390625 322.733398438 923.020507812 327.213867188 928.5390625 327.213867188 c 0
 934.05859375 327.213867188 938.5390625 322.733398438 938.5390625 317.213867188 c 2
 938.5390625 10 l 2
EndSplineSet
EndChar

StartChar: O
Encoding: 79 79 14
Width: 1000
Flags: H
LayerCount: 2
Fore
SplineSet
666.396484375 148.581054688 m 2
 675.438476562 154.912109375 677.639648438 167.393554688 671.307617188 176.435546875 c 0
 669.931640625 178.400390625 668.254882812 180.044921875 666.396484375 181.346679688 c 1
 666.40625 181.344726562 508.860351562 291.655273438 508.860351562 291.655273438 c 2
 494.70703125 301.565429688 476.359375 301.028320312 462.973632812 291.655273438 c 0
 462.954101562 291.650390625 305.4375 181.346679688 305.4375 181.346679688 c 2
 296.395507812 175.015625 294.194335938 162.534179688 300.526367188 153.4921875 c 0
 301.90234375 151.52734375 303.579101562 149.8828125 305.4375 148.581054688 c 1
 305.427734375 148.583007812 462.973632812 38.2724609375 462.973632812 38.2724609375 c 2
 477.126953125 28.3623046875 495.473632812 28.8994140625 508.860351562 38.2724609375 c 0
 508.87890625 38.27734375 666.396484375 148.581054688 666.396484375 148.581054688 c 2
491.65234375 1.80859375 m 2
 488.114257812 -0.6689453125 483.52734375 -0.53515625 480.181640625 1.80859375 c 0
 480.176757812 1.8095703125 258.870117188 156.772460938 258.870117188 156.772460938 c 2
 254.348632812 159.9375 253.248046875 166.178710938 256.4140625 170.69921875 c 0
 257.102539062 171.682617188 257.940429688 172.504882812 258.870117188 173.155273438 c 1
 258.865234375 173.154296875 468.482421875 319.927734375 468.482421875 319.927734375 c 1
 44.2646484375 616.96875 l 2
 39.7431640625 620.133789062 38.642578125 626.375 41.80859375 630.895507812 c 0
 44.974609375 635.416992188 51.21484375 636.517578125 55.7353515625 633.3515625 c 1
 712.963867188 173.155273438 l 2
 717.485351562 169.989257812 718.584960938 163.749023438 715.419921875 159.228515625 c 0
 714.731445312 158.245117188 713.893554688 157.422851562 712.963867188 156.772460938 c 1
 712.96875 156.7734375 491.65234375 1.80859375 491.65234375 1.80859375 c 2
EndSplineSet
EndChar

StartChar: P
Encoding: 80 80 15
Width: 1000
Flags: H
LayerCount: 2
Fore
SplineSet
376.786132812 384.133789062 m 2
 368.875 389.673828125 357.954101562 387.748046875 352.4140625 379.8359375 c 0
 350.276367188 376.784179688 349.249023438 373.264648438 349.249023438 369.798828125 c 1
 349.250976562 369.817382812 349.249023438 165.75 349.249023438 165.75 c 2
 349.249023438 156.090820312 357.090820312 148.25 366.749023438 148.25 c 0
 370.474609375 148.25 373.947265625 149.42578125 376.786132812 151.4140625 c 1
 376.76953125 151.404296875 522.493164062 253.438476562 522.493164062 253.438476562 c 2
 530.404296875 258.978515625 532.330078125 269.899414062 526.790039062 277.811523438 c 0
 525.5859375 279.53125 524.119140625 280.970703125 522.493164062 282.109375 c 1
 522.500976562 282.107421875 376.786132812 384.133789062 376.786132812 384.133789062 c 2
349.249023438 107.716796875 m 1
 349.249023438 10 l 2
 349.249023438 4.48046875 344.768554688 0 339.249023438 0 c 0
 333.729492188 0 329.249023438 4.48046875 329.249023438 10 c 0
 329.249023438 417.419921875 l 1
 44.2646484375 616.96875 l 2
 39.7431640625 620.133789062 38.642578125 626.375 41.80859375 630.895507812 c 0
 44.974609375 635.416992188 51.21484375 636.517578125 55.7353515625 633.3515625 c 1
 566.135742188 275.965820312 l 2
 570.657226562 272.799804688 571.756835938 266.559570312 568.591796875 262.038085938 c 0
 567.903320312 261.055664062 567.065429688 260.233398438 566.135742188 259.583007812 c 1
 566.140625 259.583984375 349.249023438 107.716796875 349.249023438 107.716796875 c 1
EndSplineSet
EndChar

StartChar: Q
Encoding: 81 81 16
Width: 1000
Flags: H
LayerCount: 2
Fore
SplineSet
467.918945312 38.2724609375 m 2
 482.072265625 28.3623046875 500.418945312 28.8994140625 513.805664062 38.2724609375 c 0
 513.82421875 38.27734375 668.869140625 146.849609375 668.869140625 146.849609375 c 2
 677.911132812 153.180664062 680.111328125 165.662109375 673.780273438 174.704101562 c 0
 672.404296875 176.669921875 670.727539062 178.313476562 668.869140625 179.615234375 c 1
 668.87890625 179.61328125 513.805664062 288.192382812 513.805664062 288.192382812 c 2
 499.65234375 298.102539062 481.3046875 297.565429688 467.918945312 288.192382812 c 0
 467.899414062 288.1875 312.85546875 179.615234375 312.85546875 179.615234375 c 2
 303.813476562 173.284179688 301.612304688 160.802734375 307.944335938 151.760742188 c 0
 309.3203125 149.795898438 310.99609375 148.151367188 312.85546875 146.849609375 c 1
 312.845703125 146.8515625 467.918945312 38.2724609375 467.918945312 38.2724609375 c 2
715.436523438 171.423828125 m 2
 719.958007812 168.258789062 721.057617188 162.017578125 717.892578125 157.497070312 c 0
 717.204101562 156.513671875 716.366210938 155.69140625 715.436523438 155.041015625 c 1
 715.44140625 155.041992188 646.979492188 107.106445312 646.979492188 107.106445312 c 2
 639.068359375 101.567382812 637.142578125 90.6455078125 642.681640625 82.734375 c 0
 643.88671875 81.0146484375 645.353515625 79.5751953125 646.979492188 78.4365234375 c 1
 646.971679688 78.4384765625 733.018554688 18.19140625 733.018554688 18.19140625 c 2
 737.540039062 15.025390625 738.639648438 8.78515625 735.474609375 4.2646484375 c 0
 732.30859375 -0.2568359375 726.068359375 -1.357421875 721.546875 1.80859375 c 0
 632.015625 64.4990234375 l 2
 617.862304688 74.4091796875 599.515625 73.8720703125 586.129882812 64.4990234375 c 0
 586.110351562 64.494140625 496.59765625 1.80859375 496.59765625 1.80859375 c 2
 493.059570312 -0.6689453125 488.47265625 -0.53515625 485.125976562 1.80859375 c 0
 485.12109375 1.8095703125 266.288085938 155.041015625 266.288085938 155.041015625 c 2
 261.766601562 158.20703125 260.666015625 164.447265625 263.83203125 168.96875 c 0
 264.520507812 169.951171875 265.358398438 170.7734375 266.288085938 171.423828125 c 1
 266.283203125 171.422851562 473.427734375 316.46484375 473.427734375 316.46484375 c 1
 44.2646484375 616.96875 l 2
 39.7431640625 620.133789062 38.642578125 626.375 41.80859375 630.895507812 c 0
 44.974609375 635.416992188 51.21484375 636.517578125 55.7353515625 633.3515625 c 0
 715.436523438 171.423828125 l 2
EndSplineSet
EndChar

StartChar: R
Encoding: 82 82 17
Width: 1000
Flags: H
LayerCount: 2
Fore
SplineSet
519.290039062 255.681640625 m 2
 527.201171875 261.221679688 529.126953125 272.142578125 523.586914062 280.0546875 c 0
 522.3828125 281.774414062 520.916015625 283.212890625 519.290039062 284.352539062 c 1
 519.297851562 284.349609375 373.458984375 386.463867188 373.458984375 386.463867188 c 2
 365.546875 392.00390625 354.625976562 390.078125 349.0859375 382.166015625 c 0
 346.94921875 379.114257812 345.921875 375.594726562 345.921875 372.12890625 c 1
 345.922851562 372.147460938 345.921875 167.905273438 345.921875 167.905273438 c 2
 345.921875 158.247070312 353.762695312 150.405273438 363.421875 150.405273438 c 0
 367.147460938 150.405273438 370.620117188 151.58203125 373.458984375 153.5703125 c 1
 373.442382812 153.560546875 519.290039062 255.681640625 519.290039062 255.681640625 c 2
449.455078125 182.3671875 m 2
 440.413085938 176.036132812 438.212890625 163.5546875 444.543945312 154.512695312 c 0
 445.919921875 152.547851562 447.596679688 150.903320312 449.455078125 149.6015625 c 1
 449.4453125 149.603515625 637.127929688 18.19140625 637.127929688 18.19140625 c 2
 641.649414062 15.025390625 642.75 8.78515625 639.583984375 4.2646484375 c 0
 636.41796875 -0.2568359375 630.177734375 -1.357421875 625.65625 1.80859375 c 0
 610.79296875 12.216796875 l 1
 431.56640625 137.711914062 l 2
 417.413085938 147.622070312 399.06640625 147.084960938 385.680664062 137.711914062 c 0
 385.661132812 137.70703125 345.921875 109.872070312 345.921875 109.872070312 c 1
 345.921875 10 l 2
 345.921875 4.48046875 341.440429688 -0 335.921875 -0 c 0
 330.40234375 -0 325.921875 4.48046875 325.921875 10 c 2
 325.921875 419.75 l 1
 44.2646484375 616.96875 l 2
 39.7431640625 620.133789062 38.642578125 626.375 41.80859375 630.895507812 c 0
 44.974609375 635.416992188 51.21484375 636.517578125 55.7353515625 633.3515625 c 0
 562.932617188 278.208007812 l 2
 567.454101562 275.04296875 568.553710938 268.801757812 565.388671875 264.28125 c 0
 564.700195312 263.298828125 563.862304688 262.4765625 562.932617188 261.825195312 c 1
 562.9375 261.826171875 449.455078125 182.3671875 449.455078125 182.3671875 c 2
EndSplineSet
EndChar

StartChar: S
Encoding: 83 83 18
Width: 1000
Flags: H
LayerCount: 2
Fore
SplineSet
777.044921875 307.446289062 m 2
 659.96484375 389.426757812 l 2
 645.811523438 399.336914062 627.46484375 398.799804688 614.079101562 389.426757812 c 0
 614.059570312 389.421875 529.560546875 330.24609375 529.560546875 330.24609375 c 2
 521.6484375 324.706054688 519.72265625 313.78515625 525.262695312 305.874023438 c 0
 526.466796875 304.153320312 527.93359375 302.71484375 529.560546875 301.576171875 c 1
 529.551757812 301.578125 788.516601562 120.252929688 788.516601562 120.252929688 c 2
 793.037109375 117.086914062 794.137695312 110.846679688 790.97265625 106.325195312 c 0
 790.284179688 105.342773438 789.446289062 104.520507812 788.516601562 103.870117188 c 1
 788.521484375 103.87109375 642.7578125 1.80859375 642.7578125 1.80859375 c 2
 639.219726562 -0.6689453125 634.6328125 -0.53515625 631.286132812 1.80859375 c 0
 631.28125 1.8095703125 485.52734375 103.870117188 485.52734375 103.870117188 c 2
 481.006835938 107.03515625 479.90625 113.276367188 483.071289062 117.796875 c 0
 486.237304688 122.318359375 492.477539062 123.418945312 496.999023438 120.252929688 c 1
 614.079101562 38.2724609375 l 2
 628.232421875 28.3623046875 646.579101562 28.8994140625 659.96484375 38.2724609375 c 0
 659.984375 38.27734375 744.874023438 97.7265625 744.874023438 97.7265625 c 2
 752.78515625 103.266601562 754.7109375 114.1875 749.170898438 122.098632812 c 0
 747.966796875 123.818359375 746.5 125.2578125 744.874023438 126.396484375 c 1
 744.881835938 126.39453125 44.2646484375 616.96875 44.2646484375 616.96875 c 2
 39.7431640625 620.133789062 38.642578125 626.375 41.80859375 630.895507812 c 0
 44.974609375 635.416992188 51.21484375 636.517578125 55.7353515625 633.3515625 c 1
 491.653320312 328.119140625 l 1
 631.286132812 425.890625 l 2
 634.82421875 428.368164062 639.411132812 428.234375 642.7578125 425.890625 c 0
 642.762695312 425.889648438 788.516601562 323.830078125 788.516601562 323.830078125 c 2
 793.037109375 320.6640625 794.137695312 314.422851562 790.97265625 309.90234375 c 0
 787.806640625 305.380859375 781.56640625 304.28125 777.044921875 307.446289062 c 2
EndSplineSet
EndChar

StartChar: T
Encoding: 84 84 19
Width: 1000
Flags: H
LayerCount: 2
Fore
SplineSet
493.415039062 10 m 2
 493.415039062 4.48046875 488.934570312 0 483.415039062 0 c 0
 477.896484375 0 473.415039062 4.48046875 473.415039062 10 c 2
 473.415039062 10 473.412109375 298.215820312 473.415039062 298.25390625 c 0
 473.415039062 309.291015625 468.209960938 320.119140625 458.490234375 326.923828125 c 2
 44.2646484375 616.96875 l 0
 39.7431640625 620.133789062 38.642578125 626.375 41.80859375 630.895507812 c 0
 44.974609375 635.416992188 51.21484375 636.517578125 55.7353515625 633.3515625 c 2
 489.548828125 329.592773438 l 1
 733.293945312 329.592773438 l 2
 738.8125 329.592773438 743.293945312 325.111328125 743.293945312 319.592773438 c 0
 743.293945312 314.073242188 738.8125 309.592773438 733.293945312 309.592773438 c 2
 515.915039062 309.592773438 l 1
 503.497070312 309.592773438 493.415039062 299.510742188 493.415039062 287.092773438 c 2
 493.415039062 10 l 2
EndSplineSet
EndChar

StartChar: U
Encoding: 85 85 20
Width: 1000
Flags: HW
LayerCount: 2
Fore
SplineSet
346.341796875 1.80859375 m 2
 342.803710938 -0.6689453125 338.216796875 -0.53515625 334.870117188 1.80859375 c 0
 334.866210938 1.8095703125 188.81640625 104.077148438 188.81640625 104.077148438 c 2
 186.0390625 106.021484375 184.551757812 109.115234375 184.551757812 112.268554688 c 0
 184.552734375 112.279296875 184.551757812 318.365234375 184.551757812 318.365234375 c 2
 184.551757812 323.883789062 189.032226562 328.365234375 194.551757812 328.365234375 c 0
 200.071289062 328.365234375 204.551757812 323.883789062 204.551757812 318.365234375 c 1
 204.551757812 135.694335938 l 2
 204.551757812 123.829101562 210.435546875 113.354492188 219.4765625 107.0234375 c 0
 219.509765625 107.00390625 317.663085938 38.2724609375 317.663085938 38.2724609375 c 2
 331.81640625 28.3623046875 350.163085938 28.8994140625 363.549804688 38.2724609375 c 0
 363.568359375 38.27734375 461.736328125 107.0234375 461.736328125 107.0234375 c 2
 471.455078125 113.829101562 476.661132812 124.65625 476.661132812 135.694335938 c 0
 476.658203125 135.732421875 476.661132812 295.981445312 476.661132812 295.981445312 c 2
 476.661132812 307.846679688 470.77734375 318.3203125 461.736328125 324.651367188 c 0
 461.703125 324.670898438 44.2646484375 616.96875 44.2646484375 616.96875 c 2
 39.7431640625 620.133789062 38.642578125 626.375 41.80859375 630.895507812 c 0
 44.974609375 635.416992188 51.21484375 636.517578125 55.7353515625 633.3515625 c 1
 496.661132812 324.612304688 l 1
 496.661132812 112.268554688 l 2
 496.661132812 108.87890625 494.979492188 105.885742188 492.396484375 104.077148438 c 0
 492.38671875 104.071289062 346.341796875 1.80859375 346.341796875 1.80859375 c 2
EndSplineSet
EndChar

StartChar: V
Encoding: 86 86 21
Width: 1000
Flags: H
LayerCount: 2
Fore
SplineSet
55.7353515625 223.245117188 m 2
 319.903320312 38.2724609375 l 2
 334.056640625 28.3623046875 352.403320312 28.8994140625 365.790039062 38.2724609375 c 0
 365.80859375 38.27734375 597.786132812 200.717773438 597.786132812 200.717773438 c 2
 605.697265625 206.2578125 607.623046875 217.178710938 602.083007812 225.090820312 c 0
 600.87890625 226.810546875 599.412109375 228.25 597.786132812 229.388671875 c 1
 597.793945312 229.38671875 44.2646484375 616.96875 44.2646484375 616.96875 c 2
 39.7431640625 620.133789062 38.642578125 626.375 41.80859375 630.895507812 c 0
 44.974609375 635.416992188 51.21484375 636.517578125 55.7353515625 633.3515625 c 1
 641.428710938 223.245117188 l 2
 645.950195312 220.079101562 647.049804688 213.838867188 643.884765625 209.317382812 c 0
 643.196289062 208.334960938 642.358398438 207.512695312 641.428710938 206.861328125 c 1
 641.43359375 206.86328125 348.58203125 1.80859375 348.58203125 1.80859375 c 2
 345.043945312 -0.6689453125 340.45703125 -0.53515625 337.110351562 1.80859375 c 0
 337.10546875 1.8095703125 44.2646484375 206.861328125 44.2646484375 206.861328125 c 2
 39.7431640625 210.02734375 38.642578125 216.268554688 41.80859375 220.7890625 c 0
 44.974609375 225.310546875 51.21484375 226.41015625 55.7353515625 223.245117188 c 2
EndSplineSet
EndChar

StartChar: W
Encoding: 87 87 22
Width: 1000
Flags: HW
LayerCount: 2
Fore
SplineSet
52 612 m 5
 44 617 l 0
 41 619 39 623 40 627 c 0
 41 632 47 636 52 635 c 1
 53 635 55 634 56 633 c 1
 502 321 l 1
 502 82 l 2
 502 67 515 55 530 55 c 0
 536 55 542 57 546 60 c 1
 705 171 l 2
 709 173 713 173 716 171 c 0
 875 60 l 2
 887 51 905 54 914 66 c 0
 917 71 919 77 919 82 c 1
 919 316 l 2
 919 322 923 326 929 326 c 0
 935 326 939 322 939 316 c 2
 939 10 l 2
 939 4 935 0 929 0 c 0
 927 0 925 1 923 2 c 1
 733 134 l 2
 719 144 700 143 687 134 c 0
 498 2 l 2
 493 -1 487 -1 484 4 c 0
 483 6 482 8 482 10 c 1
 482 289 l 2
 482 303 475 315 465 322 c 0
 52 612 l 5
EndSplineSet
EndChar

StartChar: X
Encoding: 88 88 23
Width: 1000
Flags: HO
LayerCount: 2
Fore
SplineSet
934 18 m 2
 939 15 940 9 937 4 c 0
 934 -0 927 -3 923 0 c 1
 711 150 l 1
 498 0 l 2
 494 -3 488 -0 484 4 c 0
 481 9 482 15 487 18 c 0
 673 148 l 2
 681 154 682 165 677 173 c 0
 676 174 674 176 673 177 c 1
 44 617 l 2
 40 620 39 628.3515625 42 633.3515625 c 0
 45 637.3515625 51 637.3515625 56 633.3515625 c 1
 711 175 l 1
 923 323 l 2
 927 327 934 326 937 321 c 0
 940 316 939 310 934 307 c 0
 748 177 l 2
 741 171 739 161 744 153 c 0
 745 151 747 149 748 148 c 1
 934 18 l 2
EndSplineSet
EndChar

StartChar: Y
Encoding: 89 89 24
Width: 1000
Flags: HW
LayerCount: 2
Fore
SplineSet
44 617 m 2
 40 620 39 628.3515625 42 633.3515625 c 0
 45 637.3515625 51 637.3515625 56 633.3515625 c 1
 683 194 l 2
 689.816170601 189.131306714 697.817549917 186.870072602 705.734646051 186.870072602 c 0
 714.078784028 186.870072602 722.329301272 189.381823957 729 194 c 0
 918 327 l 2
 923 330 929 329 932 324 c 0
 935 320 934 314 930 310 c 0
 489 0 l 2
 485 -3 478 -0 475 4 c 0
 472 9 473 15 478 18 c 0
 671 154 l 2
 678 158 679 168 675 174 c 0
 674 176 672 177 671 178 c 1
 44 617 l 2
EndSplineSet
EndChar

StartChar: Z
Encoding: 90 90 25
Width: 1000
Flags: HW
HStem: 0 20<548.094 941.996> 306 20<544.004 874.951>
LayerCount: 2
Fore
SplineSet
711 175 m 1
 873 288 l 2
 878 291 879 298 875 302 c 0
 874 305 870 306 867 306 c 0
 554 306 l 2
 549 306 544 302 544 296 c 0
 544 293 546 290 549 288 c 0
 711 175 l 1
936 306 m 2
 749 177 l 2
 741 171 739 160 744 152 c 0
 746 151 747 149 749 148 c 1
 792 118 l 2
 797 115 798 108 795 104 c 0
 791 99 785 98 781 101 c 1
 711 150 l 1
 551 38 l 2
 546 35 545 29 548 24 c 0
 550 21 553 20 557 20 c 0
 932 20 l 2
 937 20 942 16 942 10 c 0
 942 4 937 0 932 0 c 2
 493 0 l 2
 488 0 483 4 483 10 c 0
 483 13 485 16 487 18 c 0
 673 148 l 2
 681 154 683 165 677 172 c 0
 676 174 675 176 673 177 c 1
 44 617 l 2
 40 620 39 628.3515625 42 633.3515625 c 4
 45 637.3515625 51 637.3515625 56 633.3515625 c 1
 494 326 l 1
 931 326 l 2
 936 326 941 322 941 316 c 0
 941 313 939 308 936 306 c 2
EndSplineSet
EndChar
